<svg xmlns="http://www.w3.org/2000/svg"  viewBox="0 0 50 50" width="50px" height="50px"><path d="M 13.332031 4 C 8.1895418 4 4 8.1895418 4 13.332031 L 4 36.667969 C 4 41.810458 8.1895418 46 13.332031 46 L 36.667969 46 C 41.810458 46 46 41.809388 46 36.666016 L 46 13.332031 C 46 8.1895418 41.809388 4 36.666016 4 L 13.332031 4 z M 13.332031 6 L 36.666016 6 C 40.728643 6 44 9.2705212 44 13.332031 L 44 36.666016 C 44 40.728643 40.729479 44 36.667969 44 L 13.332031 44 C 9.2705211 44 6 40.729479 6 36.667969 L 6 13.332031 C 6 9.2705211 9.2705212 6 13.332031 6 z M 23.970703 11.986328 A 1.0001 1.0001 0 0 0 23.021484 13.208984 L 25.761719 26 L 21.652344 26 A 1.0001 1.0001 0 1 0 21.652344 28 L 27 28 A 1.0001 1.0001 0 0 0 27.978516 26.791016 L 24.978516 12.791016 A 1.0001 1.0001 0 0 0 23.970703 11.986328 z M 12.984375 14.986328 A 1.0001 1.0001 0 0 0 12 16 L 12 22 A 1.0001 1.0001 0 1 0 14 22 L 14 16 A 1.0001 1.0001 0 0 0 12.984375 14.986328 z M 36.984375 14.986328 A 1.0001 1.0001 0 0 0 36 16 L 36 22 A 1.0001 1.0001 0 1 0 38 22 L 38 16 A 1.0001 1.0001 0 0 0 36.984375 14.986328 z M 36.984375 27.986328 A 1.0001 1.0001 0 0 0 36 29 C 36 32.086102 34.872142 33.945039 33.082031 35.189453 C 31.29192 36.433867 28.735679 37 26 37 A 1.0001 1.0001 0 1 0 26 39 C 29.003321 39 31.947517 38.413617 34.222656 36.832031 C 36.497795 35.250445 38 32.609898 38 29 A 1.0001 1.0001 0 0 0 36.984375 27.986328 z"/></svg>